<?xml version="1.0" encoding="utf-8"?>
<!-- Generator: Adobe Illustrator 24.0.0, SVG Export Plug-In . SVG Version: 6.00 Build 0)  -->
<svg version="1.1" id="Calque_1" xmlns="http://www.w3.org/2000/svg" xmlns:xlink="http://www.w3.org/1999/xlink" x="0px" y="0px"
	 viewBox="0 0 400 400" style="enable-background:new 0 0 400 400;" xml:space="preserve">
<style type="text/css">
	.st0{fill:#FFFFFF;}
</style>
<path class="st0" d="M42.66,133.05c2.35-4.51,6.08-6.33,11.09-5.7c3.9,0.49,7.3-0.73,10.77-2.55c12.39-6.49,24.45-13.72,37.37-19.09
	c32.82-13.66,65.02-11.77,96.34,4.98c8.65,4.62,17.27,9.3,25.8,14.13c3.22,1.82,6.42,2.96,10.14,2.55
	c6.62-0.74,10.35,3.56,10.3,10.1c-0.22,30.11-0.1,60.22-0.1,90.32c0,2.93,2.21,4.32,4.92,3.18c0.94-0.4,0.72-1.12,0.74-1.78
	c0.04-1.64,0.01-3.28,0.01-4.92c0-29.19,0-58.37,0-87.56c0-7.94,2.77-10.76,10.62-10.73c18.23,0.06,36.47-0.22,54.68,0.32
	c20.29,0.6,38.72,17.94,41.4,38.02c0.41,3.06,0.6,6.1,0.59,9.18c-0.01,21.2-0.03,42.4,0,63.6c0.02,14.3-5.99,24.98-18.86,31.52
	c-1.43,0.73-1.8,1.66-1.94,3.1c-2.57,25.9-30.12,39.9-52.24,26.39c-8.82-5.39-14.1-13.54-15.87-23.74
	c-0.38-2.19-1.12-2.64-3.06-2.49c-2.04,0.15-4.09,0.05-6.14,0.03c-5.83-0.05-9.09-3.23-9.19-9.1c-0.07-4.4-0.14-8.81,0.04-13.21
	c0.09-2.26-0.78-2.74-2.82-2.67c-1.85,0.06-3.07,0.09-2.95,2.56c0.21,4.5,0.09,9.01,0.05,13.52c-0.06,5.68-3.27,8.89-8.98,8.89
	c-23.35,0.02-46.7,0.05-70.05-0.04c-2.68-0.01-3.79,0.38-4.47,3.47c-3.16,14.55-12.22,23.98-26.74,27.14
	c-13.72,2.99-25.2-1.85-34.07-12.59c-3.69-4.47-6-9.79-6.77-15.56c-0.31-2.29-1.24-2.46-3.1-2.45c-11.88,0.07-23.76-0.15-35.64,0.12
	c-5.12,0.12-9.23-0.95-11.88-5.6c0-17.41,0-34.82,0-52.24c2.18-4.64,5.92-6.35,10.91-6c2.74,0.19,5.51,0.03,8.27,0.03
	c4.85,0,9.69,0,15.17,0c-11.55-13.1-23.63-24.77-34.35-37.67C42.66,158.04,42.66,145.55,42.66,133.05z M143.73,143.32
	c-27.44,0-54.89,0.03-82.33-0.06c-2.33-0.01-2.9,0.6-2.83,2.87c0.18,5.42,0.13,10.85,0.02,16.28c-0.04,1.78,0.53,3.04,1.73,4.32
	c12.32,13.15,24.6,26.34,36.82,39.58c1.29,1.4,2.58,1.95,4.49,1.94c41.27-0.05,82.53-0.06,123.8,0.01c2.39,0,3.03-0.58,3.02-3
	c-0.1-19.66-0.1-39.32,0-58.98c0.01-2.4-0.6-3.02-3.01-3.01C198.21,143.35,170.97,143.32,143.73,143.32z M143.44,224.19
	c-27.24,0-54.49,0.04-81.73-0.06c-2.62-0.01-3.19,0.72-3.15,3.22c0.16,8.7,0.12,17.41,0.02,26.11c-0.02,1.98,0.46,2.56,2.5,2.54
	c10.65-0.11,21.3-0.11,31.95,0c1.88,0.02,2.61-0.76,3.39-2.26c6.48-12.47,16.9-19.18,30.85-19.15c13.95,0.03,24.32,6.83,30.77,19.3
	c0.73,1.41,1.4,2.11,3.16,2.1c21.61-0.08,43.22-0.09,64.83,0.01c2.23,0.01,2.41-0.86,2.4-2.66c-0.07-8.5-0.16-17,0.04-25.5
	c0.07-2.87-0.53-3.76-3.61-3.75C197.72,224.25,170.58,224.19,143.44,224.19z M330.17,148.46c-5.15-3.84-10.05-5.96-15.6-6.22
	c-15.14-0.72-30.3-0.07-45.44-0.37c-2.6-0.05-3.21,0.72-3.19,3.24c0.1,20.27,0.1,40.54,0,60.81c-0.01,2.56,0.66,3.23,3.22,3.22
	c22.22-0.1,44.43-0.06,66.65-0.06c5.57,0,5.4-0.01,5.63-5.6c0.11-2.65-0.73-3.14-3.22-3.13c-15.97,0.12-31.94,0.09-47.91,0.05
	c-6.14-0.02-9.23-3.16-9.24-9.26c-0.02-10.85,0.27-21.71-0.1-32.55c-0.24-7.1,4.51-10.37,10.34-10.23
	C303.95,148.68,316.63,148.46,330.17,148.46z M303.54,225.02c-11.67,0-23.34,0.05-35.01-0.05c-2.04-0.02-2.6,0.58-2.58,2.59
	c0.1,8.5,0.19,17-0.04,25.49c-0.08,2.95,1.21,3.05,3.42,2.94c1.89-0.09,1.9-1.68,2.44-2.72c6.38-12.52,20.08-20.13,33.93-18.58
	c11.39,1.28,20.17,6.86,26.13,16.67c1.04,1.72,1.74,2.03,3.31,0.65c2.95-2.58,4.95-5.66,5.72-9.51c0.99-4.97,0.23-10.01,0.54-15.01
	c0.13-2.04-0.55-2.53-2.54-2.51C327.09,225.07,315.31,225.02,303.54,225.02z M108.8,268.58c-0.25,9.97,7.88,18.47,17.94,18.72
	c10.16,0.26,18.55-7.78,18.89-18.1c0.32-9.84-7.9-18.42-17.97-18.75C117.59,250.13,109.06,258.32,108.8,268.58z M283.97,268.49
	c-0.32,9.95,7.79,18.5,17.84,18.81c10.17,0.31,18.54-7.64,18.97-18.01c0.41-9.82-7.77-18.44-17.86-18.83
	C292.84,250.07,284.3,258.19,283.97,268.49z M194.66,127.35c-12.71-8.64-31.66-14.76-49.9-14.6c-17.17,0.14-43.5,7.88-49.47,14.6
	C128.24,127.35,161.2,127.35,194.66,127.35z M319.23,184.46c6.65,0,13.31,0.01,19.96-0.01c0.92,0,2.22,0.43,2.16-1.29
	c-0.2-5.72,0.46-11.45-0.53-17.16c-0.24-1.39-0.86-1.59-2.03-1.59c-13.31,0.02-26.62,0.04-39.93-0.02c-1.51-0.01-1.9,0.49-1.88,1.93
	c0.07,5.32,0.1,10.65-0.01,15.97c-0.04,1.8,0.6,2.23,2.29,2.21C305.92,184.41,312.57,184.46,319.23,184.46z"/>
</svg>
