<?xml version="1.0" encoding="utf-8"?>
<!-- Generator: Adobe Illustrator 24.0.0, SVG Export Plug-In . SVG Version: 6.00 Build 0)  -->
<svg version="1.1" id="Calque_1" xmlns="http://www.w3.org/2000/svg" xmlns:xlink="http://www.w3.org/1999/xlink" x="0px" y="0px"
	 viewBox="0 0 400 400" style="enable-background:new 0 0 400 400;" xml:space="preserve">
<style type="text/css">
	.st0{fill:#231B17;}
	.st1{clip-path:url(#SVGID_2_);fill:#FFFFFF;}
	.st2{clip-path:url(#SVGID_4_);fill:#FFFFFF;}
</style>
<path class="st0" d="M2232.05,300.01c2.35-4.51,6.08-6.33,11.09-5.7c3.9,0.49,7.3-0.73,10.77-2.55
	c12.39-6.49,24.45-13.72,37.37-19.09c32.82-13.66,65.02-11.77,96.34,4.98c8.65,4.62,17.27,9.3,25.8,14.13
	c3.22,1.82,6.42,2.96,10.14,2.55c6.62-0.74,10.35,3.56,10.3,10.1c-0.22,30.11-0.1,60.22-0.1,90.32c0,2.93,2.21,4.32,4.92,3.18
	c0.94-0.4,0.72-1.12,0.74-1.78c0.04-1.64,0.01-3.28,0.01-4.92c0-29.19,0-58.37,0-87.56c0-7.94,2.77-10.76,10.62-10.73
	c18.23,0.06,36.47-0.22,54.68,0.32c20.29,0.6,38.72,17.94,41.4,38.02c0.41,3.06,0.6,6.1,0.59,9.18c-0.01,21.2-0.03,42.4,0,63.6
	c0.02,14.3-5.99,24.98-18.86,31.52c-1.43,0.73-1.8,1.66-1.94,3.1c-2.57,25.9-30.12,39.9-52.24,26.39
	c-8.82-5.39-14.1-13.54-15.87-23.74c-0.38-2.19-1.12-2.64-3.06-2.49c-2.04,0.15-4.09,0.05-6.14,0.03c-5.83-0.05-9.09-3.23-9.19-9.1
	c-0.07-4.4-0.14-8.81,0.04-13.21c0.09-2.26-0.78-2.74-2.82-2.67c-1.85,0.06-3.07,0.09-2.95,2.56c0.21,4.5,0.09,9.01,0.05,13.52
	c-0.06,5.68-3.27,8.89-8.98,8.89c-23.35,0.02-46.7,0.05-70.05-0.04c-2.68-0.01-3.79,0.38-4.47,3.47
	c-3.16,14.55-12.22,23.98-26.74,27.14c-13.72,2.99-25.2-1.85-34.07-12.59c-3.69-4.47-6-9.79-6.77-15.56
	c-0.31-2.29-1.24-2.46-3.1-2.45c-11.88,0.07-23.76-0.15-35.64,0.12c-5.12,0.12-9.23-0.95-11.88-5.6c0-17.41,0-34.82,0-52.24
	c2.18-4.64,5.92-6.35,10.91-6c2.74,0.19,5.51,0.03,8.27,0.03c4.85,0,9.69,0,15.17,0c-11.55-13.1-23.63-24.77-34.35-37.67
	C2232.05,325,2232.05,312.5,2232.05,300.01z M2333.12,310.28c-27.44,0-54.89,0.03-82.33-0.06c-2.33-0.01-2.9,0.6-2.83,2.87
	c0.18,5.42,0.13,10.85,0.02,16.28c-0.04,1.78,0.53,3.04,1.73,4.32c12.32,13.15,24.6,26.34,36.82,39.58c1.29,1.4,2.58,1.95,4.49,1.94
	c41.27-0.05,82.53-0.06,123.8,0.01c2.39,0,3.03-0.58,3.02-3c-0.1-19.66-0.1-39.32,0-58.98c0.01-2.4-0.6-3.02-3.01-3.01
	C2387.59,310.31,2360.36,310.28,2333.12,310.28z M2332.83,391.15c-27.24,0-54.49,0.04-81.73-0.06c-2.62-0.01-3.19,0.72-3.15,3.22
	c0.16,8.7,0.12,17.41,0.02,26.11c-0.02,1.98,0.46,2.56,2.5,2.54c10.65-0.11,21.3-0.11,31.95,0c1.88,0.02,2.61-0.76,3.39-2.26
	c6.48-12.47,16.9-19.18,30.85-19.15c13.95,0.03,24.32,6.83,30.77,19.3c0.73,1.41,1.4,2.11,3.16,2.1
	c21.61-0.08,43.22-0.09,64.83,0.01c2.23,0.01,2.41-0.86,2.4-2.66c-0.07-8.5-0.16-17,0.04-25.5c0.07-2.87-0.53-3.76-3.61-3.75
	C2387.11,391.2,2359.97,391.15,2332.83,391.15z M2519.56,315.41c-5.15-3.84-10.05-5.96-15.6-6.22c-15.14-0.72-30.3-0.07-45.44-0.37
	c-2.6-0.05-3.21,0.72-3.19,3.24c0.1,20.27,0.1,40.54,0,60.81c-0.01,2.56,0.66,3.23,3.22,3.22c22.22-0.1,44.43-0.06,66.65-0.06
	c5.57,0,5.4-0.01,5.63-5.6c0.1-2.65-0.73-3.14-3.22-3.13c-15.97,0.12-31.94,0.09-47.91,0.05c-6.14-0.02-9.23-3.16-9.24-9.26
	c-0.02-10.85,0.27-21.71-0.1-32.55c-0.24-7.1,4.51-10.37,10.34-10.23C2493.34,315.63,2506.02,315.41,2519.56,315.41z
	 M2492.93,391.98c-11.67,0-23.34,0.05-35.01-0.05c-2.04-0.02-2.6,0.58-2.58,2.59c0.1,8.5,0.19,17-0.04,25.49
	c-0.08,2.95,1.21,3.05,3.42,2.94c1.89-0.09,1.9-1.68,2.44-2.72c6.38-12.52,20.08-20.13,33.93-18.58
	c11.39,1.28,20.17,6.86,26.13,16.67c1.04,1.72,1.74,2.03,3.31,0.65c2.95-2.58,4.95-5.66,5.72-9.51c0.99-4.97,0.23-10.01,0.54-15.01
	c0.13-2.04-0.55-2.53-2.54-2.51C2516.47,392.03,2504.7,391.98,2492.93,391.98z M2298.19,435.54c-0.25,9.97,7.88,18.47,17.94,18.72
	c10.16,0.26,18.55-7.78,18.89-18.1c0.32-9.84-7.9-18.42-17.97-18.75C2306.98,417.08,2298.45,425.28,2298.19,435.54z M2473.35,435.45
	c-0.32,9.95,7.79,18.5,17.84,18.81c10.17,0.31,18.54-7.64,18.97-18.01c0.41-9.82-7.77-18.44-17.86-18.83
	C2482.22,417.03,2473.69,425.15,2473.35,435.45z M2384.05,294.3c-12.71-8.64-31.66-14.76-49.9-14.6
	c-17.17,0.14-43.5,7.88-49.47,14.6C2317.63,294.3,2350.58,294.3,2384.05,294.3z M2508.61,351.42c6.65,0,13.31,0.01,19.96-0.01
	c0.92,0,2.22,0.43,2.16-1.29c-0.2-5.72,0.46-11.45-0.53-17.16c-0.24-1.39-0.86-1.59-2.03-1.59c-13.31,0.02-26.62,0.04-39.93-0.02
	c-1.51-0.01-1.9,0.49-1.88,1.93c0.07,5.32,0.1,10.65-0.01,15.97c-0.04,1.8,0.6,2.23,2.29,2.21
	C2495.3,351.37,2501.96,351.42,2508.61,351.42z"/>
<g>
	<g>
		<defs>
			<polygon id="SVGID_1_" points="226.44,133.33 102.71,246.26 28.69,258.35 -55.6,165.99 114.54,10.72 			"/>
		</defs>
		<clipPath id="SVGID_2_">
			<use xlink:href="#SVGID_1_"  style="overflow:visible;"/>
		</clipPath>
		<path class="st1" d="M20.71,215.37c-1.27-4.88,0.28-8.72,4.4-11.65c3.21-2.28,4.91-5.46,6.27-9.13
			c4.84-13.1,8.95-26.52,14.92-39.16c15.18-32.12,40.25-52.48,74.58-61.4c9.48-2.46,18.97-4.88,28.5-7.1
			c3.59-0.84,6.72-2.18,9.2-4.99c4.41-5.01,10.02-4.39,14.35,0.42c19.89,22.12,40.04,44.01,60.09,65.99c1.95,2.14,4.51,1.66,5.75-1
			c0.43-0.92-0.21-1.31-0.64-1.8c-1.06-1.22-2.17-2.4-3.26-3.6c-19.44-21.3-38.88-42.6-58.32-63.9c-5.29-5.79-5.12-9.72,0.71-15.01
			c13.52-12.26,26.83-24.78,40.66-36.68c15.41-13.26,40.59-13.04,55.95-0.2c2.34,1.96,4.51,4.05,6.55,6.3
			c14.11,15.48,28.22,30.96,42.36,46.41c9.54,10.42,12.21,22.28,7.05,35.74c-0.57,1.49-0.22,2.43,0.63,3.57
			c15.35,20.64,4.29,49.45-21.06,54.53c-10.11,2.03-19.45-0.36-27.55-6.61c-1.74-1.34-2.58-1.17-3.92,0.25
			c-1.41,1.49-3,2.8-4.52,4.17c-4.35,3.9-8.88,3.78-12.85-0.44c-2.99-3.16-5.97-6.34-8.77-9.66c-1.44-1.71-2.4-1.48-3.87-0.05
			c-1.32,1.29-2.21,2.13-0.48,3.86c3.15,3.14,6.07,6.51,9.04,9.83c3.74,4.18,3.5,8.7-0.72,12.56
			c-17.26,15.78-34.51,31.56-51.85,47.26c-1.99,1.8-2.55,2.84-0.99,5.55c7.35,12.75,6.94,25.75-1.7,37.86
			c-8.16,11.44-19.87,15.66-33.59,13.81c-5.71-0.77-10.96-3.1-15.37-6.78c-1.76-1.47-2.55-0.96-3.92,0.31
			c-8.74,8.07-17.68,15.93-26.28,24.15c-3.71,3.54-7.46,5.54-12.52,3.93c-11.6-12.71-23.2-25.42-34.79-38.12
			c-1.48-4.86,0.15-8.63,4.07-11.74c2.16-1.71,4.1-3.7,6.14-5.56c3.58-3.27,7.17-6.54,11.22-10.24c-17.27-1.76-33.98-2.13-50.5-4.3
			C37.36,233.61,29.04,224.49,20.71,215.37z M102.32,154.63c-20.3,18.53-40.58,37.08-60.94,55.54c-1.73,1.57-1.75,2.39-0.18,4
			c3.74,3.84,7.33,7.83,10.85,11.87c1.16,1.33,2.42,1.86,4.16,1.98c17.87,1.29,35.74,2.62,53.6,4.03c1.89,0.15,3.21-0.32,4.62-1.61
			c30.49-27.9,61.01-55.76,91.58-83.57c1.77-1.61,1.85-2.47,0.23-4.23c-13.17-14.28-26.26-28.63-39.28-43.04
			c-1.59-1.76-2.46-1.8-4.24-0.17C142.64,117.88,122.47,136.24,102.32,154.63z M155.97,213.85c-20.15,18.39-40.28,36.81-60.5,55.13
			c-1.94,1.76-1.88,2.68-0.18,4.48c5.92,6.24,11.69,12.62,17.4,19.05c1.3,1.46,2.05,1.56,3.55,0.16
			c7.81-7.27,15.68-14.46,23.64-21.57c1.41-1.26,1.43-2.32,1.01-3.93c-3.51-13.48-0.27-25.41,10.06-34.8
			c10.34-9.4,22.54-11.44,35.61-6.69c1.48,0.54,2.44,0.59,3.74-0.6c15.93-14.65,31.91-29.24,47.96-43.76c1.66-1.5,1.21-2.25,0-3.56
			c-5.71-6.15-11.44-12.3-16.95-18.64c-1.86-2.14-2.9-2.39-5.17-0.3C196.16,177.25,176.05,195.53,155.97,213.85z M243.65,32.52
			c-6.36,0.67-11.4,2.44-15.68,5.99c-11.68,9.7-22.46,20.4-33.86,30.41c-1.96,1.72-1.89,2.69-0.2,4.52
			c13.58,14.72,27.08,29.52,40.5,44.38c1.69,1.88,2.64,1.91,4.52,0.17c16.36-15.07,32.83-30.04,49.26-45.04
			c4.12-3.76,3.99-3.65,0.43-7.88c-1.69-2.01-2.64-1.8-4.46-0.11c-11.73,10.87-23.57,21.63-35.41,32.38
			c-4.56,4.14-8.93,3.93-13-0.51c-7.24-7.91-14.26-16.03-21.76-23.69c-4.91-5.02-3.58-10.61,0.83-14.44
			C224.4,50.38,233.63,41.66,243.65,32.52z M274.95,106.38c-8.63,7.88-17.23,15.79-25.93,23.6c-1.52,1.37-1.54,2.18-0.18,3.63
			c5.74,6.13,11.47,12.27,16.95,18.63c1.9,2.21,2.93,1.4,4.48-0.17c1.33-1.34,0.29-2.51-0.01-3.63
			c-3.61-13.44,1.45-28.25,12.72-36.46c9.28-6.76,19.49-8.61,30.43-5.47c1.92,0.55,2.64,0.31,2.89-1.76
			c0.46-3.87-0.11-7.48-2.11-10.8c-2.58-4.3-6.5-7.46-9.59-11.32c-1.27-1.58-2.09-1.47-3.55-0.12
			C292.4,90.51,283.66,98.43,274.95,106.38z M159.92,269.64c6.46,7.45,18.13,8.16,25.74,1.56c7.69-6.67,8.54-18.21,1.92-25.97
			c-6.32-7.4-18.11-8.11-25.78-1.55C154.12,250.23,153.27,261.97,159.92,269.64z M289.43,151.32c6.39,7.48,18.09,8.25,25.72,1.69
			c7.73-6.64,8.63-18.09,2.04-25.95c-6.24-7.44-18.03-8.21-25.76-1.68C283.72,131.88,282.82,143.57,289.43,151.32z M129.35,108.59
			c-15.16,2.28-33.25,10.6-46.64,23.03c-12.6,11.69-26.93,35.11-26.87,44.06C80.22,153.43,104.6,131.18,129.35,108.59z
			 M259.54,66.18c4.92-4.49,9.85-8.98,14.76-13.49c0.68-0.63,1.93-1.18,0.74-2.4c-3.96-4.04-7.29-8.67-11.82-12.16
			c-1.1-0.85-1.69-0.58-2.56,0.21c-9.83,9-19.66,18-29.55,26.94c-1.12,1.01-1.08,1.64-0.11,2.67c3.6,3.84,7.17,7.7,10.63,11.66
			c1.17,1.34,1.93,1.22,3.16,0.07C249.66,75.13,254.62,70.68,259.54,66.18z"/>
		<path class="st1" d="M136.84,165.56c3.61,3.96,7.26,7.89,10.83,11.89c3.19,3.58,3.15,8.48-0.01,11.52
			c-3.18,3.07-8.44,2.85-11.76-0.73c-7.43-8.01-14.79-16.08-22.09-24.2c-3.31-3.69-3.06-8.71,0.34-11.73
			c3.41-3.03,8.16-2.59,11.64,1.16C129.51,157.47,133.16,161.52,136.84,165.56z"/>
		<path class="st1" d="M170.49,134.78c3.61,3.96,7.26,7.88,10.83,11.88c3.23,3.63,3.22,8.42,0.08,11.51
			c-3.15,3.09-8.4,2.93-11.74-0.66c-7.51-8.07-14.94-16.2-22.28-24.43c-3.19-3.58-2.85-8.54,0.43-11.49
			c3.31-2.97,8.12-2.66,11.43,0.87C163.04,126.52,166.74,130.67,170.49,134.78z"/>
		<path class="st1" d="M91.03,206.74c-3.55-3.89-7.12-7.75-10.64-11.67c-3.45-3.84-3.39-8.89,0.07-11.97
			c3.39-3.02,8.26-2.59,11.66,1.12c7.25,7.9,14.48,15.83,21.69,23.77c3.34,3.68,3.31,8.69,0.02,11.74
			c-3.28,3.04-8.39,2.7-11.74-0.89C98.36,214.85,94.71,210.78,91.03,206.74z"/>
	</g>
	<g>
		<defs>
			<path id="SVGID_3_" d="M275.8,369.28H42.3v-125h217.75c-0.08-36-0.17-72-0.25-108c66.61-7.52,126.74,17.3,144,57
				C426.51,245.52,382.18,340,275.8,369.28z"/>
		</defs>
		<clipPath id="SVGID_4_">
			<use xlink:href="#SVGID_3_"  style="overflow:visible;"/>
		</clipPath>
		<path class="st2" d="M56.34,168.79c2.35-4.51,6.08-6.33,11.09-5.7c3.9,0.49,7.3-0.73,10.77-2.55
			c12.39-6.49,24.45-13.72,37.37-19.09c32.82-13.66,65.02-11.77,96.34,4.98c8.65,4.62,17.27,9.3,25.8,14.13
			c3.22,1.82,6.42,2.96,10.14,2.55c6.62-0.74,10.35,3.56,10.3,10.1c-0.22,30.11-0.1,60.22-0.1,90.32c0,2.93,2.21,4.32,4.92,3.18
			c0.94-0.4,0.72-1.12,0.74-1.78c0.04-1.64,0.01-3.28,0.01-4.92c0-29.19,0-58.37,0-87.56c0-7.94,2.77-10.76,10.62-10.73
			c18.23,0.06,36.47-0.22,54.68,0.32c20.29,0.6,38.72,17.94,41.4,38.02c0.41,3.06,0.6,6.1,0.59,9.18c-0.01,21.2-0.03,42.4,0,63.6
			c0.02,14.3-5.99,24.98-18.86,31.52c-1.43,0.73-1.8,1.66-1.94,3.1c-2.57,25.9-30.12,39.9-52.24,26.39
			c-8.82-5.39-14.1-13.54-15.87-23.74c-0.38-2.19-1.12-2.64-3.06-2.49c-2.04,0.15-4.09,0.05-6.14,0.03
			c-5.83-0.05-9.09-3.23-9.19-9.1c-0.07-4.4-0.14-8.81,0.04-13.21c0.09-2.26-0.78-2.74-2.82-2.67c-1.85,0.06-3.07,0.09-2.95,2.56
			c0.21,4.5,0.09,9.01,0.05,13.52c-0.06,5.68-3.27,8.89-8.98,8.89c-23.35,0.02-46.7,0.05-70.05-0.04c-2.68-0.01-3.79,0.38-4.47,3.47
			c-3.16,14.55-12.22,23.98-26.74,27.14c-13.72,2.99-25.2-1.85-34.07-12.59c-3.69-4.47-6-9.79-6.77-15.56
			c-0.31-2.29-1.24-2.46-3.1-2.45c-11.88,0.07-23.76-0.15-35.64,0.12c-5.12,0.12-9.23-0.95-11.88-5.6c0-17.41,0-34.82,0-52.24
			c2.18-4.64,5.92-6.35,10.91-6c2.74,0.19,5.51,0.03,8.27,0.03c4.85,0,9.69,0,15.17,0c-11.55-13.1-23.63-24.77-34.35-37.67
			C56.34,193.78,56.34,181.28,56.34,168.79z M157.42,179.06c-27.44,0-54.89,0.03-82.33-0.06c-2.33-0.01-2.9,0.6-2.83,2.87
			c0.18,5.42,0.13,10.85,0.02,16.28c-0.04,1.78,0.53,3.04,1.73,4.32c12.32,13.15,24.6,26.34,36.82,39.58
			c1.29,1.4,2.58,1.95,4.49,1.94c41.27-0.05,82.53-0.06,123.8,0.01c2.39,0,3.03-0.58,3.02-3c-0.1-19.66-0.1-39.32,0-58.98
			c0.01-2.4-0.6-3.02-3.01-3.01C211.89,179.09,184.65,179.06,157.42,179.06z M157.13,259.92c-27.24,0-54.49,0.04-81.73-0.06
			c-2.62-0.01-3.19,0.72-3.15,3.22c0.16,8.7,0.12,17.41,0.02,26.11c-0.02,1.98,0.46,2.56,2.5,2.54c10.65-0.11,21.3-0.11,31.95,0
			c1.88,0.02,2.61-0.76,3.39-2.26c6.48-12.47,16.9-19.18,30.85-19.15c13.95,0.03,24.32,6.83,30.77,19.3c0.73,1.41,1.4,2.11,3.16,2.1
			c21.61-0.08,43.22-0.09,64.83,0.01c2.23,0.01,2.41-0.86,2.4-2.66c-0.07-8.5-0.16-17,0.04-25.5c0.07-2.87-0.53-3.76-3.61-3.75
			C211.41,259.98,184.27,259.92,157.13,259.92z M343.86,184.19c-5.15-3.84-10.05-5.96-15.6-6.22c-15.14-0.72-30.3-0.07-45.44-0.37
			c-2.6-0.05-3.21,0.72-3.19,3.24c0.1,20.27,0.1,40.54,0,60.81c-0.01,2.56,0.66,3.23,3.22,3.22c22.22-0.1,44.43-0.06,66.65-0.06
			c5.57,0,5.4-0.01,5.63-5.6c0.11-2.65-0.73-3.14-3.22-3.13c-15.97,0.12-31.94,0.09-47.91,0.05c-6.14-0.02-9.23-3.16-9.24-9.26
			c-0.02-10.85,0.27-21.71-0.1-32.55c-0.24-7.1,4.51-10.37,10.34-10.23C317.64,184.41,330.31,184.19,343.86,184.19z M317.23,260.76
			c-11.67,0-23.34,0.05-35.01-0.05c-2.04-0.02-2.6,0.58-2.58,2.59c0.1,8.5,0.19,17-0.04,25.49c-0.08,2.95,1.21,3.05,3.42,2.94
			c1.89-0.09,1.9-1.68,2.44-2.72c6.38-12.52,20.08-20.13,33.93-18.58c11.39,1.28,20.17,6.86,26.13,16.67
			c1.04,1.72,1.74,2.03,3.31,0.65c2.95-2.58,4.95-5.66,5.72-9.51c0.99-4.97,0.23-10.01,0.54-15.01c0.13-2.04-0.55-2.53-2.54-2.51
			C340.77,260.81,329,260.76,317.23,260.76z M122.48,304.32c-0.25,9.97,7.88,18.47,17.94,18.72c10.16,0.26,18.55-7.78,18.89-18.1
			c0.32-9.84-7.9-18.42-17.97-18.75C131.27,285.86,122.74,294.06,122.48,304.32z M297.65,304.23c-0.32,9.95,7.79,18.5,17.84,18.81
			c10.17,0.31,18.54-7.64,18.97-18.01c0.41-9.82-7.77-18.44-17.86-18.83C306.52,285.8,297.99,293.93,297.65,304.23z M208.35,163.08
			c-12.71-8.64-31.66-14.76-49.9-14.6c-17.17,0.14-43.5,7.88-49.47,14.6C141.93,163.08,174.88,163.08,208.35,163.08z M332.91,220.2
			c6.65,0,13.31,0.01,19.96-0.01c0.92,0,2.22,0.43,2.16-1.29c-0.2-5.72,0.46-11.45-0.53-17.16c-0.24-1.39-0.86-1.59-2.03-1.59
			c-13.31,0.02-26.62,0.04-39.93-0.02c-1.51-0.01-1.9,0.49-1.88,1.93c0.07,5.32,0.1,10.65-0.01,15.97c-0.04,1.8,0.6,2.23,2.29,2.21
			C319.6,220.15,326.26,220.2,332.91,220.2z"/>
	</g>
</g>
</svg>
