<?xml version="1.0" encoding="utf-8"?>
<!-- Generator: Adobe Illustrator 24.0.0, SVG Export Plug-In . SVG Version: 6.00 Build 0)  -->
<svg version="1.1" id="Calque_1" xmlns="http://www.w3.org/2000/svg" xmlns:xlink="http://www.w3.org/1999/xlink" x="0px" y="0px"
	 viewBox="0 0 400 400" style="enable-background:new 0 0 400 400;" xml:space="preserve">
<style type="text/css">
	.st0{fill:#FFFFFF;}
</style>
<g>
	<path class="st0" d="M358.25,303.85c-1.07,0.72-0.89,1.98-1.19,2.99c-3.73,12.75-15.08,21.6-28.34,21.68
		c-20.49,0.12-40.99,0.06-61.48,0.03c-6.01-0.01-9.79-3.81-9.82-9.86c-0.05-8.86-0.04-17.71,0-26.57
		c0.03-6.45,3.65-10.03,10.21-10.05c9.68-0.04,19.36-0.04,29.04,0.01c1.94,0.01,2.99,0,1.61-2.37
		c-9.97-17.14-19.88-34.31-29.74-51.51c-0.89-1.55-1.58-1.64-3.04-0.75c-3.67,2.26-7.44,4.37-11.19,6.49
		c-3.65,2.07-7.27,2.11-10.68-0.49c-3.45-2.62-4.25-6.21-3.18-10.22c4.62-17.36,9.28-34.72,13.98-52.06
		c1.53-5.67,6.12-8.46,11.8-6.96c17.57,4.63,35.11,9.4,52.66,14.12c4.15,1.12,6.5,3.92,6.93,8.1c0.4,3.94-1.34,6.98-4.76,8.99
		c-3.63,2.13-7.19,4.42-10.95,6.29c-2.25,1.12-2.06,2.03-0.96,3.92c14.65,25.23,29.17,50.53,43.84,75.75
		c2.33,4,3.78,8.28,5.27,12.58C358.25,297.26,358.25,300.55,358.25,303.85z"/>
	<path class="st0" d="M200.01,109.74c-5.85,10.12-11.44,19.79-17.03,29.46c-4.52,7.83-8.93,15.72-13.62,23.45
		c-1.39,2.29-0.95,3.12,1.25,4.23c3.57,1.8,6.97,3.95,10.43,5.97c3.78,2.2,5.53,5.46,4.83,9.82c-0.65,4.09-3.21,6.48-7.17,7.54
		c-17.35,4.65-34.69,9.37-52.06,13.98c-5.8,1.54-10.44-1.21-12.03-7.06c-4.7-17.24-9.32-34.49-13.95-51.75
		c-1.11-4.15-0.33-7.81,3.21-10.48c3.53-2.67,7.25-2.44,10.96-0.28c3.46,2.02,7,3.91,10.37,6.08c1.9,1.23,2.69,1.01,3.85-1.02
		c13.06-22.82,26.24-45.58,39.4-68.35c2-3.47,3.93-6.99,6.04-10.39c11.94-19.22,39.45-19.32,51.09,0.06
		c10.63,17.7,20.76,35.7,31.04,53.6c2.85,4.97,1.5,10.13-3.42,13.06c-7.95,4.72-15.96,9.34-24.03,13.84
		c-4.88,2.73-10.03,1.15-12.95-3.84c-5.03-8.6-9.97-17.26-14.95-25.89C200.96,111.26,200.63,110.75,200.01,109.74z"/>
	<path class="st0" d="M100.39,282.06c9.49,0,18.42,0,27.35,0c11.33,0,22.66-0.08,33.99,0.06c2.51,0.03,3.13-0.72,3.02-3.1
		c-0.19-4.21-0.06-8.44-0.03-12.66c0.03-4.02,1.95-6.88,5.6-8.44c3.67-1.58,7.16-0.98,9.98,1.81c13.09,12.98,26.14,26,39.11,39.1
		c3.73,3.77,3.69,9.2-0.11,13.04c-12.89,13.03-25.88,25.97-38.88,38.89c-2.92,2.9-6.52,3.47-10.26,1.82
		c-3.62-1.6-5.45-4.54-5.44-8.56c0.01-4.22-0.16-8.45,0.06-12.66c0.12-2.38-0.63-2.85-2.9-2.85c-29.97,0.08-59.94,0.09-89.91,0.04
		c-14.02-0.03-25.54-8.9-29.11-22.24c-2.1-7.83-1.16-15.41,2.8-22.38c10.14-17.87,20.47-35.63,30.8-53.4
		c2.87-4.93,8.04-6.31,13.02-3.51c7.88,4.43,15.71,8.96,23.5,13.54c5.18,3.05,6.57,8.26,3.59,13.49
		C111.32,263.24,105.99,272.37,100.39,282.06z"/>
</g>
</svg>
