<?xml version="1.0" encoding="utf-8"?>
<!-- Generator: Adobe Illustrator 24.0.0, SVG Export Plug-In . SVG Version: 6.00 Build 0)  -->
<svg version="1.1" id="Calque_1" xmlns="http://www.w3.org/2000/svg" xmlns:xlink="http://www.w3.org/1999/xlink" x="0px" y="0px"
	 viewBox="0 0 400 400" style="enable-background:new 0 0 400 400;" xml:space="preserve">
<style type="text/css">
	.st0{fill:#69BE58;}
	.st1{fill:#1E9146;}
</style>
<g>
	<path class="st0" d="M91.7,211.22c-0.98-0.31-1.99-0.55-2.99-0.84c-6.65-1.95-12.4-6-17.84-10.15c-5.4-4.13-10.2-8.98-13.91-14.7
		c-0.03-0.06-0.07-0.11-0.1-0.16c-0.46-0.72-0.9-1.44-1.32-2.18c0.35-0.76,1-1,1.77-1.02c11.19,13.85,25.28,23.1,43.66,27.82
		c-3.9-6.15-5.68-12.48-6.82-19.64c-1.21-7.59-3.13-14.4-8.19-20.35c-4.95-5.83-11.45-10.26-18.26-13.65
		c-4.44-2.22-9.2-3.67-13.93-5.14c-4.56-1.42-9.83-2.63-13.81-5.36c-0.47-0.32-1.08-0.68-1.57-0.39c-0.57,0.34-0.55,1.43-0.59,2
		c-1.05,15.62,0.57,32.37,10.06,45.44c2.7,3.72,6.02,6.97,9.76,9.64c5.41,3.87,11.61,6.57,18.01,8.3c3.23,0.87,6.52,1.49,9.84,1.88
		c1,0.12,8.79,1.1,8.27-0.41c0-0.01-0.01-0.02-0.01-0.03c-0.13-0.31-0.47-0.47-0.77-0.6C92.54,211.5,92.12,211.35,91.7,211.22"/>
	<path class="st1" d="M109,150.38c-0.11-0.53-0.23-1.06-0.36-1.59c-1.43-5.79-4.06-11.21-7.08-16.33
		c-4.8-8.13-10.73-15.64-14.7-24.23c0.1,0.22-2.65,2.87-2.94,3.19c-1.01,1.12-2.01,2.26-2.98,3.41c-3.74,4.41-7.1,9.14-10.01,14.13
		c-1.47,2.51-2.83,5.09-4.07,7.72c-0.63,1.32-1.22,2.66-1.79,4.01c-0.99,2.35-2.21,5.48,0.56,7.1c0.87,0.51,1.86,0.75,2.81,1.07
		c1.19,0.41,2.25,1,3.35,1.6c0.74,0.41,1.94,1.02,2.6,0.13c0.63-0.85,0.53-2.16,0.74-3.15c0.45-2.08,0.98-4.16,1.91-6.08
		c0.03-0.06,0.07-0.13,0.13-0.14c0.06-0.01,0.11,0.03,0.16,0.06c0.65,0.54,0.6,1.54,0.59,2.3c-0.01,2.33-0.01,4.66-0.02,6.98
		c0,2.16,0.01,3.75,1.81,5.21c8.13,5.69,15.15,13.88,18.02,23.52c0.78,2.62,1.23,5.31,1.59,8.01c0.18,1.39,0.34,2.78,0.51,4.17
		c0.12,0.99-0.15,2.87,0.57,3.61c0.95-0.84,1.67-2.23,2.31-3.33c1.33-2.27,2.36-4.7,3.26-7.17
		C109.91,173.82,111.41,161.69,109,150.38 M80.3,136.56C80.3,136.56,80.3,136.56,80.3,136.56c0.01,0,0.01,0.01,0.01,0.01
		C80.31,136.57,80.3,136.56,80.3,136.56"/>
	<path class="st0" d="M130.22,124.7c-0.01-0.15-0.02-0.3-0.04-0.44c-0.17-2.02-2.03-0.87-3.23-0.45c-1.9,0.68-3.8,1.35-5.65,2.13
		c-4.83,2.03-9.49,4.75-13.45,8.18c-1.39,1.2,1.08,4.49,1.61,5.59c1.02,2.11,1.88,4.29,2.59,6.53c1.42,4.47,2.22,9.14,2.39,13.82
		c0.25,6.84-0.85,13.74-3.34,20.12c-0.18,0.47-1.37,3.04-0.82,3.41c0.37,0.25,2.39-1.34,2.76-1.59c1.89-1.28,3.66-2.71,5.33-4.27
		c7.08-6.62,12.05-15.87,13.24-25.53c0.1-0.8,0.17-1.61,0.22-2.41c0.25-4.27-0.17-8.54-0.63-12.78
		C130.74,132.9,130.56,128.8,130.22,124.7"/>
	<path class="st1" d="M143.6,190.69h-29.7c-5.26,0-9.41,4.16-9.41,9.42v67.51c0,5.26,4.15,9.42,9.41,9.42
		c5.26,0,9.41-4.16,9.41-9.42v-18.71h15.03l18.34,23.23c2.2,2.81,5.01,4.89,9.29,4.89c4.52,0,8.93-3.42,8.93-8.68
		c0-2.94-1.22-4.89-3.06-7.21l-13.08-15.9c10.39-4.28,17.11-12.6,17.11-26.05v-0.25c0-8.07-2.57-14.8-7.33-19.57
		C162.91,193.75,154.48,190.69,143.6,190.69 M156.8,220.16c0,7.22-5.26,12.11-14.42,12.11h-19.07v-24.58h18.7
		c9.17,0,14.79,4.16,14.79,12.23V220.16z"/>
	<path class="st1" d="M250.3,259.55h-38.75v-17.98h32.63c4.64,0,8.43-3.67,8.43-8.32c0-4.65-3.79-8.44-8.43-8.44h-32.63v-17.37
		h38.13c4.65,0,8.44-3.67,8.44-8.32c0-4.65-3.79-8.44-8.44-8.44h-47.43c-5.26,0-9.41,4.16-9.41,9.42v66.78
		c0,5.26,4.15,9.42,9.41,9.42h48.04c4.64,0,8.43-3.67,8.43-8.32C258.73,263.34,254.94,259.55,250.3,259.55"/>
	<path class="st1" d="M343.07,227.01h-21.51c-0.66,0-1.3,0.09-1.91,0.23c-0.19-2.2-0.38-4.42-0.58-6.73
		c-5.59,5.92-11.05,11.7-16.56,17.52c6.38,4.64,12.72,9.25,19.02,13.83c-0.12-2.86-0.25-5.67-0.38-8.61
		c0.14,0.01,0.28,0.02,0.42,0.02h12.71v12.23c-4.77,3.43-10.88,5.14-17.73,5.14c-15.15,0-25.91-11.5-25.91-27.15v-0.25
		c0-14.55,10.88-26.66,24.57-26.66c8.07,0,13.57,2.2,18.7,5.87c1.34,0.98,3.06,1.96,5.74,1.96c5.13,0,9.29-4.16,9.29-9.29
		c0-3.67-2.08-6.24-3.91-7.58c-7.7-5.38-16.26-8.32-29.21-8.32c-25.91,0-44.86,19.93-44.86,44.27v0.24
		c0,25.32,18.34,44.03,44.98,44.03c12.83,0,22.98-4.28,29.95-8.56c4.52-2.69,6.6-6.48,6.6-11.98v-20.79
		C352.48,231.17,348.32,227.01,343.07,227.01"/>
</g>
</svg>
